Coordinates
version=1
nRows=19
nColumns=36
inDegrees=yes

Units are S.I. units (second, meters, Newtons, ...)
If the header above contains a line with 'inDegrees', this indicates whether rotational values are in degrees (yes) or radians (no).

endheader
time	pelvis_tilt	pelvis_list	pelvis_rotation	pelvis_tx	pelvis_ty	pelvis_tz	hip_flexion_r	hip_adduction_r	hip_rotation_r	knee_angle_r	knee_angle_r_beta	ankle_angle_r	subtalar_angle_r	mtp_angle_r	hip_flexion_l	hip_adduction_l	hip_rotation_l	knee_angle_l	knee_angle_l_beta	ankle_angle_l	subtalar_angle_l	mtp_angle_l	lumbar_extension	lumbar_bending	lumbar_rotation	arm_flex_r	arm_add_r	arm_rot_r	elbow_flex_r	pro_sup_r	arm_flex_l	arm_add_l	arm_rot_l	elbow_flex_l	pro_sup_l
      0.00000000	      1.26190277	     -2.52164691	      5.34731011	     -1.00272991	      1.35278534	     -0.07244967	     -6.31901450	      4.00807495	      0.39432140	      2.37101973	      0.04138210	     -2.15384149	    -20.53528118	     -5.90625155	     -6.07900169	     -3.62377239	      4.89318132	      0.73330744	      0.01279863	      8.83714594	     -4.80175261	     -5.90625155	     -4.03051404	      4.13994426	      2.98806850	     -6.97571017	     -6.16135932	     -4.02762465	     34.53157739	     84.17000205	     -1.77618201	     -4.87997863	      6.75024157	     26.54339122	     75.93737035
      0.01666670	     -0.60164986	     -2.29944662	      4.26919755	     -1.00056147	      1.34667897	     -0.07149599	     -3.62930491	      3.46805571	     -0.55197389	      3.63407473	      0.06342657	      2.52301003	    -16.59743096	     -6.49616183	     -3.50987993	     -2.65554331	      6.07898473	      1.65975865	      0.02896825	      8.39733408	     -5.45362955	     -6.49616183	     -0.96977846	      4.17390081	      3.81349719	     -8.46213304	     -5.32120359	    -10.80216563	     37.24674135	     89.85827538	     -2.40656324	     -3.47591513	     -0.61936517	     25.28338288	     81.96025950
      0.03333330	     -1.75104971	     -1.65211931	      3.07506056	     -1.00703014	      1.34547595	     -0.06438387	     -1.82118789	      2.68146136	     -0.70028259	      4.08304541	      0.07126259	      3.61121257	    -15.64162377	     -6.52572277	     -2.16942132	     -1.99137710	      5.63631267	      1.85389576	      0.03235659	      8.39252778	     -5.68807098	     -6.52572277	      0.55424145	      3.08739381	      4.54488324	     -8.69158873	     -5.01964702	    -10.54923291	     37.95097312	     89.79086327	     -2.98999472	     -3.88298410	     -0.57167974	     25.66458500	     81.80311534
      0.05000000	     -1.89233161	     -1.37010741	      2.82340015	     -1.00667656	      1.34589755	     -0.06406689	     -1.33681697	      2.34780399	     -0.96886498	      4.32160649	      0.07542626	      4.20427909	    -14.95637302	     -6.72297656	     -2.25817179	     -1.74529017	      6.05069697	      1.36254703	      0.02378093	      7.99150059	     -6.49857001	     -6.72297656	      0.86080063	      2.52915908	      5.03798319	     -8.68260096	     -5.27498046	     -9.38107199	     38.28541584	     87.58260878	     -3.01135885	     -4.34789983	      0.47987653	     25.44149811	     79.77369512
      0.06666670	     -2.08494782	     -1.26973420	      2.49228719	     -1.00656594	      1.34577641	     -0.06348935	     -0.99641787	      2.28160080	     -0.93606901	      4.43227103	      0.07735772	      4.46362395	    -14.48255305	     -7.09843328	     -2.21694253	     -1.66658125	      6.10300453	      1.19715177	      0.02089424	      7.75944396	     -6.94815114	     -7.09843328	      1.19576489	      2.35377381	      5.72365652	     -8.91078583	     -5.35938194	     -9.03353377	     39.02092076	     88.30597850	     -2.83820137	     -4.58385192	      3.17202642	     24.72176581	     77.49555745
      0.08333330	     -2.09980971	     -1.24600018	      2.20863233	     -1.00639528	      1.34595825	     -0.06305741	     -0.82288092	      2.35705394	     -1.00665019	      4.48397446	      0.07826012	      4.44716319	    -14.28860232	     -7.30798572	     -2.30674240	     -1.67911119	      6.06972500	      1.12633607	      0.01965827	      7.49618088	     -7.65331812	     -7.30798572	      1.24975910	      2.21229842	      6.21164746	     -8.78202562	     -5.61673452	     -8.10731552	     38.90809452	     88.05358710	     -2.39876681	     -4.57947862	      3.43976517	     24.43752271	     76.44940054
      0.10000000	     -1.97891656	     -1.28525374	      2.01115345	     -1.00670180	      1.34613162	     -0.06291046	     -0.89045916	      2.41763669	     -1.05438656	      4.61764294	      0.08059307	      4.37484952	    -13.85745747	     -7.34926905	     -2.51532014	     -1.73830916	      6.12490352	      1.09148014	      0.01904992	      7.12377581	     -8.21667210	     -7.34926905	      1.23784157	      2.18097879	      6.26346673	     -8.45064943	     -5.75895449	     -7.14890923	     38.63197290	     85.37857250	     -2.33925165	     -4.37423461	      3.12627553	     24.38545585	     74.61895586
      0.11666670	     -1.91448070	     -1.35761303	      1.85363990	     -1.00650320	      1.34321881	     -0.06253452	     -0.88583662	      2.55408797	     -0.64259108	      4.72257619	      0.08242450	      4.40734690	    -13.89189187	     -7.36056203	     -2.58639952	     -1.80167165	      6.07971911	      1.13331545	      0.01978009	      7.10517854	     -8.36393101	     -7.36056203	      1.46050135	      2.12584813	      6.38628052	     -8.21247690	     -6.06651028	     -5.66172363	     38.25141744	     84.93725471	     -1.97281265	     -4.16117828	      2.98772381	     23.25198601	     73.91605246
      0.13333330	     -1.89107254	     -1.39901635	      1.82329862	     -1.00682267	      1.34355228	     -0.06265067	     -0.80936116	      2.63930709	     -0.43604150	      4.81612468	      0.08405723	      4.48835672	    -13.81016702	     -7.39612684	     -2.55109646	     -1.82927698	      6.61534233	      1.10297053	      0.01925047	      6.70020936	     -9.29256203	     -7.39612684	      1.57295300	      2.03196161	      6.16114196	     -7.95755117	     -6.17940915	     -4.79716659	     38.01315219	     83.18046280	     -1.97466737	     -4.08956351	      2.81125314	     23.24562159	     72.46642014
      0.15000000	     -1.84675958	     -1.40027776	      1.53408127	     -1.00658932	      1.34417205	     -0.06242957	     -0.69377811	      2.64997643	      0.03750346	      5.04060038	      0.08797507	      4.76681234	    -13.60337139	     -7.43548625	     -2.63161687	     -1.83549923	      6.77253173	      1.10179849	      0.01923001	      6.56850938	     -9.56857515	     -7.43548625	      1.63401136	      1.92042149	      6.02357959	     -7.40253214	     -6.51081448	     -3.43193873	     37.45342295	     81.61267128	     -1.73604851	     -4.09394931	      3.09149289	     22.42128138	     71.04885895
      0.16666670	     -1.75005767	     -1.43567147	      1.39669530	     -1.00694572	      1.34488177	     -0.06242135	     -0.75523927	      2.67552223	      0.17147382	      5.10685387	      0.08913141	      4.90650222	    -13.45571426	     -7.46597434	     -2.79028001	     -1.84889839	      6.88828314	      1.12019171	      0.01955103	      6.49777881	     -9.87441871	     -7.46597434	      1.41769201	      1.96593715	      5.92688568	     -7.22148463	     -6.25889393	     -5.48073220	     37.70778250	     87.91950300	     -1.71599581	     -4.08949023	      3.42495379	     21.98460394	     73.76164878
      0.18333330	     -1.80696038	     -1.48281570	      1.17417881	     -1.00672046	      1.34513628	     -0.06215874	     -0.61364738	      2.74458883	      0.62755769	      5.10807175	      0.08915267	      5.06367715	    -13.25439966	     -7.48840458	     -2.84550738	     -1.87158889	      7.03391678	      1.12522741	      0.01963892	      6.58463223	     -9.97535521	     -7.48840458	      1.40505334	      2.02664222	      5.76074693	     -6.70348861	     -6.35409478	     -5.14917893	     37.23957733	     88.38614136	     -1.72896061	     -4.00255117	      3.70678083	     21.33619859	     73.21375992
      0.20000000	     -1.89126730	     -1.58251618	      1.16458213	     -1.00694238	      1.34834352	     -0.06257720	     -0.58587612	      2.84412517	      0.79759040	      4.96250238	      0.08661201	      5.07571100	    -13.15892990	     -7.49591266	     -2.84092470	     -1.95183869	      7.34881656	      1.09407758	      0.01909526	      6.49147599	    -10.21224783	     -7.49591266	      1.38223888	      2.14571777	      5.64907022	     -6.42283498	     -6.31134061	     -6.01985608	     37.19430781	     89.67856338	     -1.57465407	     -3.76710349	      3.26904662	     20.54618460	     73.41206178
      0.21666670	     -1.96598911	     -1.56405274	      1.07042459	     -1.01334329	      1.34849720	     -0.06686311	     -0.29270873	      2.71024149	      0.89026256	      5.08100621	      0.08868029	      5.01145986	    -13.11294315	     -7.49593937	     -2.69703610	     -1.82128424	      7.49152847	      1.24026516	      0.02164671	      6.52576311	    -10.30924963	     -7.49593937	      1.12629921	      2.18613537	      5.53496442	     -6.02726004	     -6.58954571	     -6.09397808	     37.36368216	     89.67666689	     -1.46107871	     -3.58384590	      3.30509840	     20.42090211	     73.43831559
      0.23333330	     -2.08346783	     -1.54323720	      1.11821209	     -1.01341622	      1.34803920	     -0.06692881	     -0.04917945	      2.59749730	      0.96514037	      5.02785717	      0.08775266	      4.90056470	    -13.12125768	     -7.49723340	     -2.45546853	     -1.67664606	      7.94839315	      1.34895771	      0.02354375	      6.23441765	    -10.92046278	     -7.49723340	      0.94333483	      2.16594047	      5.30659984	     -5.57254349	     -6.86590709	     -5.32225310	     37.36652370	     86.15462742	     -0.98820684	     -3.44553910	      3.84878167	     19.47815759	     71.66455366
      0.25000000	     -1.90968136	     -1.50834650	      1.14574768	     -1.01316343	      1.34826918	     -0.06684902	     -0.16532901	      2.47722223	      0.88268858	      4.99073859	      0.08710482	      4.97588679	    -12.75510040	     -7.49778574	     -2.53841283	     -1.56722896	      8.02455648	      1.43075669	      0.02497141	      6.35461220	    -10.75485279	     -7.49778574	      0.27495241	      2.13584278	      5.12029262	     -5.11744272	     -6.97404070	     -5.40941301	     37.42786335	     83.75087151	     -0.91611623	     -3.42694150	      3.98652185	     19.90229779	     70.47412581
      0.26666670	     -1.91789249	     -1.48127682	      1.01681522	     -1.01353039	      1.34805394	     -0.06670091	     -0.01441481	      2.38273527	      0.96523912	      5.09208495	      0.08887365	      4.95776773	    -12.72343415	     -7.49824639	     -2.43337850	     -1.47326841	      8.09667386	      1.49948068	      0.02617087	      6.18559778	    -11.10059436	     -7.49824639	     -0.01822454	      2.12522277	      5.05515062	     -4.82823055	     -7.02046538	     -5.22171675	     37.28429348	     82.23698483	     -0.61955186	     -3.34053580	      4.35493139	     19.36744125	     69.75959468
      0.28333330	     -2.15405170	     -1.53050570	      0.90255061	     -1.01339428	      1.34762855	     -0.06662823	      0.34804262	      2.39031432	      0.99265808	      5.20451438	      0.09083591	      4.92011016	    -12.54718830	     -7.49902249	     -2.07922498	     -1.53185685	      8.34527980	      1.58838593	      0.02772256	      5.91477536	    -11.48544310	     -7.49902249	      0.08277757	      2.26326579	      5.51548962	     -5.21545050	     -6.80567247	     -7.64446742	     37.68067283	     90.47702984	     -0.10372581	     -3.24407371	      5.05919633	     18.45089189	     73.59611986
      0.30000000	     -2.24989903	     -1.53476811	      0.93097299	     -1.01336802	      1.35066643	     -0.06699000	      0.44408268	      2.35773440	      0.87758306	      5.14320956	      0.08976594	      4.88155873	    -12.37901324	     -7.49961717	     -1.92775355	     -1.54920335	      8.62643540	      1.65504257	      0.02888594	      5.80803869	    -11.68103727	     -7.49961717	     -0.00624833	      2.33787865	      5.66710442	     -5.46188901	     -6.85277066	     -7.78591010	     37.95625618	     89.37197050	      0.17874258	     -3.29057096	      6.49729432	     18.16522283	     73.21295817
